<svg width="1270" height="143" viewBox="0 0 1270 143" fill="none" xmlns="http://www.w3.org/2000/svg">
<path d="M33.4828 108.803L36.7922 87.6783H102.201L105.51 108.803H33.4828ZM69.107 50.1019L48.6669 95.1562L49.2509 101.139L31.3415 138.528H0L69.107 0L138.214 138.528H106.678L89.1578 102.26L89.5472 95.5301L69.107 50.1019Z" fill="white"/>
<path d="M183.949 77.5832H213.344L257.728 138.528H224.829L183.949 77.5832ZM152.997 7.66484H180.834V138.528H152.997V7.66484ZM169.933 30.4724V7.66484H198.744C209.515 7.66484 218.665 9.40968 226.192 12.8994C233.719 16.3891 239.494 21.2497 243.517 27.4813C247.54 33.7128 249.552 41.0038 249.552 49.3541C249.552 57.5798 247.54 64.8707 243.517 71.227C239.494 77.4585 233.719 82.3192 226.192 85.8088C218.665 89.2985 209.515 91.0434 198.744 91.0434H169.933V69.7314H196.992C201.923 69.7314 206.141 68.9836 209.645 67.488C213.279 65.8678 216.069 63.6244 218.016 60.7579C219.962 57.7667 220.936 54.2147 220.936 50.1019C220.936 45.9891 219.962 42.4994 218.016 39.6328C216.069 36.6417 213.279 34.3983 209.645 32.9027C206.141 31.2825 201.923 30.4724 196.992 30.4724H169.933Z" fill="white"/>
<path d="M260.087 31.7811V7.66484H361.314V31.7811H324.522V138.528H296.684V31.7811H260.087Z" fill="white"/>
<path d="M457.101 73.0964C457.101 81.4467 458.918 88.8623 462.552 95.3432C466.186 101.824 471.182 106.934 477.541 110.673C483.9 114.412 491.298 116.281 499.733 116.281C508.169 116.281 515.566 114.412 521.925 110.673C528.285 106.934 533.216 101.824 536.72 95.3432C540.354 88.8623 542.171 81.4467 542.171 73.0964C542.171 64.7461 540.419 57.3305 536.915 50.8497C533.411 44.3688 528.479 39.259 522.12 35.52C515.761 31.7811 508.299 29.9116 499.733 29.9116C491.298 29.9116 483.9 31.7811 477.541 35.52C471.182 39.259 466.186 44.3688 462.552 50.8497C458.918 57.3305 457.101 64.7461 457.101 73.0964ZM427.706 73.0964C427.706 63.1259 429.523 54.0278 433.157 45.8021C436.791 37.4518 441.852 30.2232 448.341 24.1162C454.83 18.0093 462.422 13.3356 471.117 10.0952C479.942 6.73011 489.481 5.04758 499.733 5.04758C510.116 5.04758 519.654 6.73011 528.349 10.0952C537.045 13.3356 544.637 18.0093 551.126 24.1162C557.744 30.2232 562.806 37.4518 566.31 45.8021C569.943 54.0278 571.76 63.1259 571.76 73.0964C571.76 82.9423 569.943 92.1027 566.31 100.578C562.806 108.928 557.809 116.219 551.32 122.451C544.961 128.682 537.369 133.543 528.544 137.032C519.849 140.397 510.245 142.08 499.733 142.08C489.221 142.08 479.553 140.397 470.728 137.032C462.033 133.543 454.441 128.682 447.952 122.451C441.463 116.219 436.466 108.928 432.962 100.578C429.458 92.1027 427.706 82.9423 427.706 73.0964Z" fill="white"/>
<path d="M611.19 31.0333V7.66484H672.121V31.0333H611.19ZM611.19 82.6307V60.384H670.174V82.6307H611.19ZM593.28 7.66484H620.144V138.528H593.28V7.66484Z" fill="white"/>
<path d="M774.893 108.803L778.202 87.6783H843.611L846.92 108.803H774.893ZM810.517 50.1019L790.077 95.1562L790.661 101.139L772.752 138.528H741.41L810.517 0L879.624 138.528H848.088L830.568 102.26L830.957 95.5301L810.517 50.1019Z" fill="white"/>
<path d="M925.359 77.5832H954.754L999.138 138.528H966.239L925.359 77.5832ZM894.407 7.66484H922.244V138.528H894.407V7.66484ZM911.343 30.4724V7.66484H940.154C950.925 7.66484 960.075 9.40968 967.602 12.8994C975.129 16.3891 980.904 21.2497 984.927 27.4813C988.951 33.7128 990.962 41.0038 990.962 49.3541C990.962 57.5798 988.951 64.8707 984.927 71.227C980.904 77.4585 975.129 82.3192 967.602 85.8088C960.075 89.2985 950.925 91.0434 940.154 91.0434H911.343V69.7314H938.402C943.333 69.7314 947.551 68.9836 951.055 67.488C954.689 65.8678 957.479 63.6244 959.426 60.7579C961.373 57.7667 962.346 54.2147 962.346 50.1019C962.346 45.9891 961.373 42.4994 959.426 39.6328C957.479 36.6417 954.689 34.3983 951.055 32.9027C947.551 31.2825 943.333 30.4724 938.402 30.4724H911.343Z" fill="white"/>
<path d="M1037.51 73.0964C1037.51 81.696 1039.52 89.2362 1043.55 95.717C1047.7 102.073 1053.08 106.996 1059.7 110.486C1066.32 113.851 1073.52 115.533 1081.31 115.533C1087.8 115.533 1093.57 114.723 1098.64 113.103C1103.7 111.483 1108.24 109.302 1112.26 106.56C1116.42 103.818 1119.98 100.827 1122.97 97.5865V127.685C1117.39 131.923 1111.29 135.225 1104.67 137.593C1098.18 139.961 1089.94 141.145 1079.95 141.145C1069.57 141.145 1059.9 139.525 1050.94 136.285C1042.12 133.044 1034.4 128.371 1027.78 122.264C1021.29 116.157 1016.23 108.99 1012.59 100.765C1009.09 92.4143 1007.34 83.1916 1007.34 73.0964C1007.34 63.0013 1009.09 53.8408 1012.59 45.6152C1016.23 37.2648 1021.29 30.0362 1027.78 23.9293C1034.4 17.8223 1042.12 13.1486 1050.94 9.90822C1059.9 6.66779 1069.57 5.04758 1079.95 5.04758C1089.94 5.04758 1098.18 6.23158 1104.67 8.59958C1111.29 10.9676 1117.39 14.2703 1122.97 18.5078V48.6063C1119.98 45.3659 1116.42 42.3747 1112.26 39.6328C1108.24 36.891 1103.7 34.7099 1098.64 33.0897C1093.57 31.4695 1087.8 30.6594 1081.31 30.6594C1073.52 30.6594 1066.32 32.4042 1059.7 35.8939C1053.08 39.2589 1047.7 44.1196 1043.55 50.4758C1039.52 56.832 1037.51 64.3722 1037.51 73.0964Z" fill="white"/>
<path d="M1159.82 80.9482V56.832H1259.88V80.9482H1159.82ZM1242.16 7.66484H1270V138.528H1242.16V7.66484ZM1150.67 7.66484H1178.51V138.528H1150.67V7.66484Z" fill="white"/>
</svg>
