<svg width="176" height="86" viewBox="0 0 176 86" fill="none" xmlns="http://www.w3.org/2000/svg">
<path d="M105.68 49.1967C105.68 50.5891 105.401 51.7958 104.842 52.8632C104.284 53.9307 103.539 54.8125 102.608 55.4623C101.492 56.2977 100.282 56.8546 99.025 57.2259C97.7685 57.5508 96.0931 57.7364 94.0919 57.7364H85.5753V29.9361H93.4404C95.5346 29.9361 97.1169 29.9825 98.1873 30.1217C99.2577 30.261 100.235 30.5394 101.212 31.0499C102.283 31.6069 103.074 32.3031 103.539 33.1385C104.051 34.0203 104.284 35.0413 104.284 36.2016C104.284 37.5011 103.912 38.6614 103.167 39.7288C102.422 40.7499 101.398 41.5853 100.095 42.1422V42.2815C101.864 42.7456 103.213 43.5346 104.191 44.7413C105.168 45.9479 105.68 47.4331 105.68 49.1967ZM100.188 36.7121C100.188 36.0624 100.049 35.459 99.8162 34.9485C99.5835 34.438 99.2112 34.0667 98.6527 33.7882C98.0012 33.4633 97.3031 33.2313 96.5119 33.1849C95.7208 33.092 94.6504 33.092 93.2542 33.092H89.4846V41.214H93.9523C95.2088 41.214 96.0931 41.1676 96.6981 41.0284C97.3031 40.8891 97.9081 40.6571 98.5131 40.2858C99.1181 39.9145 99.5369 39.4504 99.7696 38.847C100.049 38.2901 100.188 37.5939 100.188 36.7121ZM101.585 49.336C101.585 48.2685 101.445 47.4331 101.119 46.7369C100.793 46.0408 100.142 45.4838 99.1646 45.0197C98.5596 44.6948 97.8615 44.5092 97.1169 44.4164C96.3723 44.3236 95.3484 44.2771 93.9988 44.2771H89.5311V54.5804H92.7423C94.4642 54.5804 95.8138 54.4876 96.8377 54.3484C97.815 54.2091 98.6992 53.8843 99.4904 53.3738C100.235 52.9096 100.793 52.3527 101.119 51.7029C101.398 51.146 101.585 50.3106 101.585 49.336Z" fill="#282828"/>
<path d="M109.589 57.7364V29.9361H128.158V33.2313H113.545V40.8427H127.181V44.1379H113.545V54.4412H128.158V57.7364H109.589Z" fill="#282828"/>
<path d="M140.724 58.2469C138.583 58.2469 136.768 58.0613 135.232 57.6436C133.743 57.2259 132.3 56.7154 130.997 56.112V51.4709H131.276C132.579 52.6312 134.069 53.513 135.697 54.1163C137.326 54.7197 138.909 55.0445 140.444 55.0445C142.632 55.0445 144.261 54.6268 145.378 53.745C146.494 52.9096 147.053 51.7494 147.053 50.357C147.053 49.2431 146.774 48.3613 146.169 47.6652C145.564 46.969 144.679 46.4585 143.376 46.1336C142.446 45.9015 141.608 45.6695 140.863 45.5302C140.119 45.391 139.141 45.159 138.024 44.8805C137.001 44.6484 136.07 44.3236 135.279 43.9523C134.487 43.581 133.743 43.0705 133.138 42.4207C132.533 41.8173 132.067 41.0748 131.695 40.2858C131.369 39.4504 131.183 38.5221 131.183 37.4083C131.183 35.1341 132.114 33.2777 133.976 31.7461C135.837 30.2145 138.211 29.472 141.143 29.472C142.818 29.472 144.354 29.6112 145.843 29.9361C147.332 30.261 148.682 30.6787 149.938 31.282V35.6911H149.659C148.728 34.9021 147.518 34.1595 146.029 33.5561C144.54 32.9528 143.004 32.6279 141.375 32.6279C139.56 32.6279 138.071 33.0456 136.954 33.8346C135.837 34.6236 135.279 35.6911 135.279 36.9906C135.279 38.1509 135.604 39.1255 136.256 39.8217C136.907 40.5178 137.885 41.0284 139.141 41.3532C139.979 41.5853 141.003 41.8173 142.213 42.0494C143.423 42.3279 144.4 42.5599 145.238 42.792C147.286 43.3953 148.775 44.2771 149.706 45.4374C150.636 46.5977 151.102 48.0829 151.102 49.8001C151.102 50.8675 150.869 51.935 150.404 53.0025C149.938 54.0699 149.287 54.9517 148.403 55.6943C147.425 56.4833 146.355 57.1331 145.191 57.5508C144.028 58.0149 142.539 58.2469 140.724 58.2469Z" fill="#282828"/>
<path d="M162.132 57.7364V33.2313H152.172V29.9361H176V33.2313H166.041V57.7364H162.132Z" fill="#282828"/>
<path d="M86.1248 68.3478V63.8158H88.8633V64.3026H86.6743V65.8339H88.7216V66.3208H86.6743V67.8609H88.8988V68.3478H86.1248Z" fill="#282828"/>
<path d="M89.8538 68.3478V63.8158H90.4032V66.0641H90.4564L92.4948 63.8158H93.2127L91.3072 65.8605L93.2127 68.3478H92.548L90.9704 66.2411L90.4032 66.8784V68.3478H89.8538Z" fill="#282828"/>
<path d="M94.11 68.3478H93.534L95.2001 63.8158H95.7673L97.4335 68.3478H96.8574L95.5015 64.5327H95.466L94.11 68.3478ZM94.3227 66.5775H96.6447V67.0643H94.3227V66.5775Z" fill="#282828"/>
<path d="M97.3621 64.3026V63.8158H100.765V64.3026H99.3384V68.3478H98.7889V64.3026H97.3621Z" fill="#282828"/>
<path d="M101.613 68.3478V63.8158H104.352V64.3026H102.163V65.8339H104.21V66.3208H102.163V67.8609H104.387V68.3478H101.613Z" fill="#282828"/>
<path d="M105.342 68.3478V63.8158H106.876C107.23 63.8158 107.521 63.8763 107.748 63.9972C107.976 64.1167 108.144 64.2812 108.254 64.4907C108.363 64.7002 108.418 64.9384 108.418 65.2055C108.418 65.4725 108.363 65.7093 108.254 65.9158C108.144 66.1223 107.977 66.2846 107.751 66.4026C107.525 66.5192 107.236 66.5775 106.884 66.5775H105.644V66.0818H106.867C107.109 66.0818 107.304 66.0464 107.452 65.9755C107.601 65.9047 107.709 65.8044 107.775 65.6746C107.843 65.5433 107.877 65.3869 107.877 65.2055C107.877 65.024 107.843 64.8654 107.775 64.7297C107.707 64.594 107.599 64.4892 107.449 64.4155C107.3 64.3402 107.103 64.3026 106.858 64.3026H105.892V68.3478H105.342ZM107.478 66.3119L108.595 68.3478H107.957L106.858 66.3119H107.478Z" fill="#282828"/>
<path d="M109.883 63.8158V68.3478H109.333V63.8158H109.883Z" fill="#282828"/>
<path d="M114.583 63.8158V68.3478H114.051L111.578 64.7894H111.534V68.3478H110.984V63.8158H111.516L113.998 67.3829H114.042V63.8158H114.583Z" fill="#282828"/>
<path d="M115.682 68.3478V63.8158H117.269C117.585 63.8158 117.845 63.8704 118.051 63.9795C118.256 64.0872 118.409 64.2325 118.509 64.4155C118.61 64.5969 118.66 64.7983 118.66 65.0196C118.66 65.2143 118.625 65.3751 118.556 65.502C118.488 65.6289 118.398 65.7292 118.286 65.8029C118.175 65.8767 118.054 65.9313 117.924 65.9667V66.011C118.063 66.0198 118.203 66.0685 118.343 66.157C118.484 66.2455 118.601 66.3724 118.695 66.5376C118.79 66.7029 118.837 66.905 118.837 67.144C118.837 67.3711 118.786 67.5755 118.682 67.7569C118.579 67.9384 118.416 68.0822 118.193 68.1884C117.969 68.2947 117.679 68.3478 117.322 68.3478H115.682ZM116.232 67.8609H117.322C117.681 67.8609 117.936 67.7916 118.086 67.6529C118.238 67.5128 118.314 67.3431 118.314 67.144C118.314 66.9905 118.275 66.8489 118.197 66.7191C118.119 66.5878 118.007 66.483 117.862 66.4048C117.718 66.3252 117.546 66.2854 117.348 66.2854H116.232V67.8609ZM116.232 65.8074H117.251C117.416 65.8074 117.565 65.7749 117.698 65.71C117.833 65.6451 117.939 65.5536 118.017 65.4356C118.097 65.3176 118.137 65.1789 118.137 65.0196C118.137 64.8204 118.068 64.6515 117.929 64.5128C117.79 64.3727 117.57 64.3026 117.269 64.3026H116.232V65.8074Z" fill="#282828"/>
<path d="M122.718 63.8158H123.267V66.8164C123.267 67.1263 123.194 67.4029 123.048 67.6463C122.903 67.8882 122.699 68.0793 122.434 68.2194C122.17 68.3581 121.86 68.4274 121.504 68.4274C121.148 68.4274 120.838 68.3581 120.573 68.2194C120.309 68.0793 120.104 67.8882 119.957 67.6463C119.813 67.4029 119.74 67.1263 119.74 66.8164V63.8158H120.29V66.7722C120.29 66.9935 120.338 67.1904 120.436 67.363C120.533 67.5342 120.672 67.6692 120.852 67.768C121.034 67.8654 121.251 67.914 121.504 67.914C121.756 67.914 121.974 67.8654 122.155 67.768C122.337 67.6692 122.476 67.5342 122.572 67.363C122.669 67.1904 122.718 66.9935 122.718 66.7722V63.8158Z" fill="#282828"/>
<path d="M124.365 68.3478V63.8158H125.898C126.253 63.8158 126.544 63.8763 126.771 63.9972C126.998 64.1167 127.167 64.2812 127.276 64.4907C127.385 64.7002 127.44 64.9384 127.44 65.2055C127.44 65.4725 127.385 65.7093 127.276 65.9158C127.167 66.1223 126.999 66.2846 126.773 66.4026C126.547 66.5192 126.258 66.5775 125.907 66.5775H124.666V66.0818H125.889C126.131 66.0818 126.326 66.0464 126.474 65.9755C126.623 65.9047 126.731 65.8044 126.798 65.6746C126.866 65.5433 126.9 65.3869 126.9 65.2055C126.9 65.024 126.866 64.8654 126.798 64.7297C126.73 64.594 126.621 64.4892 126.472 64.4155C126.323 64.3402 126.126 64.3026 125.88 64.3026H124.914V68.3478H124.365ZM126.501 66.3119L127.617 68.3478H126.979L125.88 66.3119H126.501Z" fill="#282828"/>
<path d="M131.458 65.232C131.409 65.083 131.345 64.9495 131.265 64.8315C131.187 64.712 131.093 64.6102 130.984 64.5261C130.876 64.442 130.753 64.3778 130.616 64.3336C130.478 64.2893 130.328 64.2672 130.164 64.2672C129.895 64.2672 129.65 64.3365 129.43 64.4752C129.21 64.6139 129.035 64.8182 128.905 65.0882C128.775 65.3581 128.71 65.6893 128.71 66.0818C128.71 66.4742 128.776 66.8054 128.907 67.0754C129.039 67.3453 129.217 67.5497 129.441 67.6883C129.666 67.827 129.919 67.8963 130.199 67.8963C130.459 67.8963 130.688 67.841 130.886 67.7304C131.085 67.6182 131.241 67.4604 131.351 67.2568C131.464 67.0518 131.52 66.8105 131.52 66.5332L131.688 66.5686H130.323V66.0818H132.051V66.5686C132.051 66.9418 131.972 67.2664 131.812 67.5423C131.654 67.8182 131.436 68.0321 131.156 68.184C130.879 68.3345 130.56 68.4097 130.199 68.4097C129.797 68.4097 129.444 68.3153 129.14 68.1265C128.837 67.9376 128.601 67.6692 128.431 67.321C128.263 66.9728 128.178 66.5598 128.178 66.0818C128.178 65.7233 128.227 65.4009 128.323 65.1147C128.42 64.8271 128.557 64.5822 128.735 64.3801C128.912 64.1779 129.122 64.023 129.364 63.9153C129.606 63.8077 129.873 63.7538 130.164 63.7538C130.403 63.7538 130.626 63.7899 130.833 63.8622C131.041 63.933 131.226 64.0341 131.389 64.1654C131.553 64.2952 131.69 64.4509 131.799 64.6323C131.908 64.8123 131.984 65.0122 132.025 65.232H131.458Z" fill="#282828"/>
<path d="M137.725 63.8158H138.275V66.8164C138.275 67.1263 138.202 67.4029 138.055 67.6463C137.911 67.8882 137.706 68.0793 137.442 68.2194C137.177 68.3581 136.867 68.4274 136.511 68.4274C136.155 68.4274 135.845 68.3581 135.58 68.2194C135.316 68.0793 135.111 67.8882 134.964 67.6463C134.82 67.4029 134.747 67.1263 134.747 66.8164V63.8158H135.297V66.7722C135.297 66.9935 135.346 67.1904 135.443 67.363C135.541 67.5342 135.679 67.6692 135.86 67.768C136.041 67.8654 136.258 67.914 136.511 67.914C136.764 67.914 136.981 67.8654 137.162 67.768C137.344 67.6692 137.483 67.5342 137.579 67.363C137.676 67.1904 137.725 66.9935 137.725 66.7722V63.8158Z" fill="#282828"/>
<path d="M139.372 68.3478V63.8158H140.905C141.26 63.8158 141.551 63.8763 141.778 63.9972C142.006 64.1167 142.174 64.2812 142.283 64.4907C142.393 64.7002 142.447 64.9384 142.447 65.2055C142.447 65.4725 142.393 65.7093 142.283 65.9158C142.174 66.1223 142.006 66.2846 141.78 66.4026C141.554 66.5192 141.266 66.5775 140.914 66.5775H139.673V66.0818H140.896C141.139 66.0818 141.334 66.0464 141.481 65.9755C141.63 65.9047 141.738 65.8044 141.805 65.6746C141.873 65.5433 141.907 65.3869 141.907 65.2055C141.907 65.024 141.873 64.8654 141.805 64.7297C141.737 64.594 141.628 64.4892 141.479 64.4155C141.33 64.3402 141.133 64.3026 140.887 64.3026H139.921V68.3478H139.372ZM141.508 66.3119L142.625 68.3478H141.986L140.887 66.3119H141.508Z" fill="#282828"/>
<path d="M143.363 68.3478V63.8158H146.084V64.3026H143.912V65.8339H145.88V66.3208H143.912V68.3478H143.363Z" fill="#282828"/>
<path d="M150.003 63.8158H150.552V66.8164C150.552 67.1263 150.479 67.4029 150.333 67.6463C150.188 67.8882 149.983 68.0793 149.719 68.2194C149.455 68.3581 149.144 68.4274 148.788 68.4274C148.433 68.4274 148.122 68.3581 147.858 68.2194C147.594 68.0793 147.388 67.8882 147.242 67.6463C147.097 67.4029 147.025 67.1263 147.025 66.8164V63.8158H147.574V66.7722C147.574 66.9935 147.623 67.1904 147.721 67.363C147.818 67.5342 147.957 67.6692 148.137 67.768C148.319 67.8654 148.536 67.914 148.788 67.914C149.041 67.914 149.258 67.8654 149.44 67.768C149.622 67.6692 149.76 67.5342 149.856 67.363C149.954 67.1904 150.003 66.9935 150.003 66.7722V63.8158Z" fill="#282828"/>
<path d="M64.8749 55.9255L58.3595 52.1662H41.3263L34.8109 55.9255C41.0471 66.7393 59.7557 84.4684 80 86C72.8796 82.055 61.6172 67.8996 64.8749 55.9255Z" fill="#282828"/>
<path d="M69.4822 0C69.5753 8.07555 62.9203 24.83 50.8668 28.0324V35.551L59.3833 50.2634L65.8988 54.0227C72.228 43.2553 78.278 18.2396 69.4822 0Z" fill="#282828"/>
<path d="M48.726 28.0324C36.2071 28.0324 11.4485 35.2725 0 52.027C6.93426 47.8964 24.8517 45.2974 33.6475 54.0691L40.1629 50.3098L48.6795 35.5974L48.726 28.0324Z" fill="#282828"/>
<path d="M45.7941 45.9935C45.7941 43.8122 47.5625 42.0022 49.7964 42.0022C51.9837 42.0022 53.7987 43.7658 53.7987 45.9935C53.7987 48.2213 52.0302 49.9849 49.7964 49.9849C47.6091 49.9849 45.7941 48.2213 45.7941 45.9935Z" fill="#282828"/>
</svg>
